<?xml version="1.0" encoding="utf-8"?>
<!-- Generator: Adobe Illustrator 25.0.0, SVG Export Plug-In . SVG Version: 6.00 Build 0)  -->
<svg version="1.1" id="Groupe_2_1_" xmlns="http://www.w3.org/2000/svg" xmlns:xlink="http://www.w3.org/1999/xlink" x="0px"
	 y="0px" viewBox="0 0 640.14 304.48" style="enable-background:new 0 0 640.14 304.48;" xml:space="preserve">
<style type="text/css">
	.st0{fill:#EE2B37;}
	.st1{fill:none;stroke:#000000;stroke-miterlimit:100;}
</style>
<g id="S">
	<g>
		<path class="st0" d="M210.64,58.78V0.5H68.24c-2.51,0-5.05,1.01-7.64,3.02C58,5.54,55.68,8.2,53.62,11.51
			c-2.06,3.31-3.71,7.06-4.96,11.22c-1.25,4.18-1.88,8.42-1.88,12.73v65.19c0,4.32,0.62,8.57,1.88,12.74
			c1.25,4.18,2.9,7.92,4.96,11.22c2.05,3.31,4.38,5.98,6.97,7.99c2.59,2.02,5.14,3.02,7.64,3.02h103.79v23.74H0.5v58.28h188.69
			c2.5,0,5.05-1.01,7.64-3.02c2.59-2.01,4.92-4.67,6.97-7.99c2.05-3.31,3.71-7.05,4.96-11.22c1.25-4.17,1.88-8.42,1.88-12.74v-65.19
			c0-4.32-0.63-8.56-1.88-12.74c-1.25-4.17-2.91-7.91-4.96-11.22c-2.06-3.31-4.38-5.97-6.97-7.99c-2.59-2.01-5.14-3.02-7.64-3.02
			H85.4V58.78H210.64z"/>
	</g>
	<g>
		<path class="st1" d="M210.64,58.78V0.5H68.24c-2.51,0-5.05,1.01-7.64,3.02C58,5.54,55.68,8.2,53.62,11.51
			c-2.06,3.31-3.71,7.06-4.96,11.22c-1.25,4.18-1.88,8.42-1.88,12.73v65.19c0,4.32,0.62,8.57,1.88,12.74
			c1.25,4.18,2.9,7.92,4.96,11.22c2.05,3.31,4.38,5.98,6.97,7.99c2.59,2.02,5.14,3.02,7.64,3.02h103.79v23.74H0.5v58.28h188.69
			c2.5,0,5.05-1.01,7.64-3.02c2.59-2.01,4.92-4.67,6.97-7.99c2.05-3.31,3.71-7.05,4.96-11.22c1.25-4.17,1.88-8.42,1.88-12.74v-65.19
			c0-4.32-0.63-8.56-1.88-12.74c-1.25-4.17-2.91-7.91-4.96-11.22c-2.06-3.31-4.38-5.97-6.97-7.99c-2.59-2.01-5.14-3.02-7.64-3.02
			H85.4V58.78H210.64z"/>
	</g>
</g>
<g id="R">
	<g>
		<path class="st0" d="M354.67,135.62h11c2.5,0,5.05-1.01,7.64-3.02c2.59-2.01,4.92-4.67,6.97-7.99c2.05-3.31,3.71-7.05,4.96-11.22
			c1.25-4.17,1.88-8.42,1.88-12.74V35.47c0-4.32-0.63-8.56-1.88-12.73c-1.25-4.17-2.91-7.91-4.96-11.22
			c-2.06-3.31-4.38-5.97-6.97-7.99c-2.59-2.01-5.14-3.02-7.64-3.02H230.5v58.28h118v23.74h-118v135.12h38.62v-82.02h39.42
			l78.58,168.36h43.45L354.67,135.62z"/>
	</g>
	<g>
		<path class="st1" d="M354.67,135.62h11c2.5,0,5.05-1.01,7.64-3.02c2.59-2.01,4.92-4.67,6.97-7.99c2.05-3.31,3.71-7.05,4.96-11.22
			c1.25-4.17,1.88-8.42,1.88-12.74V35.47c0-4.32-0.63-8.56-1.88-12.73c-1.25-4.17-2.91-7.91-4.96-11.22
			c-2.06-3.31-4.38-5.97-6.97-7.99c-2.59-2.01-5.14-3.02-7.64-3.02H230.5v58.28h118v23.74h-118v135.12h38.62v-82.02h39.42
			l78.58,168.36h43.45L354.67,135.62z"/>
	</g>
</g>
<g id="L">
	<g>
		<path d="M440,159.36V0.5h-38.62v182.18c0,4.32,0.62,8.57,1.88,12.74c1.25,4.18,2.9,7.92,4.96,11.22c2.05,3.31,4.38,5.98,6.97,7.99
			c2.59,2.02,5.14,3.02,7.64,3.02h216.8v-58.28H440z"/>
	</g>
	<g>
		<path class="st1" d="M440,159.36V0.5h-38.62v182.18c0,4.32,0.62,8.57,1.88,12.74c1.25,4.18,2.9,7.92,4.96,11.22
			c2.05,3.31,4.38,5.98,6.97,7.99c2.59,2.02,5.14,3.02,7.64,3.02h216.8v-58.28H440z"/>
	</g>
</g>
<g id="Groupe_1_1_">
	<g id="SimRacers">
		<g>
			<path d="M12.46,273.37c0.41,3.43,3.87,5.63,8.85,5.63c4.6,0,7.85-2.23,7.85-5.42c0-2.7-2.11-4.25-7.29-5.36l-5.51-1.17
				c-7.71-1.61-11.48-5.63-11.48-12.07c0-7.97,6.42-13.21,16.17-13.21c9.32,0,15.91,5.21,16.17,12.74H28.9
				c-0.41-3.34-3.52-5.57-7.79-5.57c-4.42,0-7.35,2.05-7.35,5.27c0,2.61,2.02,4.1,6.97,5.16l5.1,1.08
				c8.5,1.79,12.16,5.45,12.16,12.01c0,8.53-6.53,13.74-17.14,13.74c-10.08,0-16.61-4.95-16.93-12.83H12.46z"/>
			<path d="M43.93,285.12v-42.28h8.85v42.28H43.93z"/>
			<path d="M97.2,285.12v-28.27h-0.47l-10.75,25.84h-5.89L69.3,256.85h-0.47v28.27h-8.2v-42.28h10.43l11.69,28.42h0.53L95,242.84
				h10.4v42.28H97.2z"/>
			<path d="M122.1,285.12h-8.85v-42.28h17.75c9.29,0,15,5.16,15,13.56c0,5.39-2.81,10.08-7.68,12.01l8.91,16.7h-10.02l-7.88-15.32
				h-7.24V285.12z M122.1,263h7.76c4.45,0,7.06-2.4,7.06-6.47c0-4.01-2.75-6.53-7.15-6.53h-7.68V263z"/>
			<path d="M176.48,275.04h-14.85l-3.25,10.08h-8.88l14.68-42.28h10.4l14.68,42.28h-9.58L176.48,275.04z M163.53,268.21h11.07
				l-5.24-16.58h-0.53L163.53,268.21z"/>
			<path d="M190.28,263.97c0-13.74,7.56-22.21,19.83-22.21c10.02,0,17.7,6.65,18.34,15.85h-8.61c-0.85-4.86-4.69-8.06-9.73-8.06
				c-6.65,0-10.78,5.51-10.78,14.41s4.13,14.44,10.81,14.44c5.07,0,8.88-2.99,9.73-7.65h8.61c-0.73,9.14-8.17,15.44-18.37,15.44
				C197.87,286.2,190.28,277.74,190.28,263.97z"/>
			<path d="M262.23,285.12h-28.01v-42.28h28.01v7.56h-19.16v9.87h18.08v7h-18.08v10.28h19.16V285.12z"/>
			<path d="M278,285.12h-8.85v-42.28h17.75c9.29,0,15,5.16,15,13.56c0,5.39-2.81,10.08-7.68,12.01l8.91,16.7h-10.02l-7.88-15.32H278
				V285.12z M278,263h7.76c4.45,0,7.06-2.4,7.06-6.47c0-4.01-2.75-6.53-7.15-6.53H278V263z"/>
			<path d="M315.06,273.37c0.41,3.43,3.87,5.63,8.85,5.63c4.6,0,7.85-2.23,7.85-5.42c0-2.7-2.11-4.25-7.29-5.36l-5.51-1.17
				c-7.71-1.61-11.48-5.63-11.48-12.07c0-7.97,6.42-13.21,16.17-13.21c9.32,0,15.91,5.21,16.17,12.74h-8.32
				c-0.41-3.34-3.52-5.57-7.79-5.57c-4.42,0-7.35,2.05-7.35,5.27c0,2.61,2.02,4.1,6.97,5.16l5.1,1.08
				c8.5,1.79,12.16,5.45,12.16,12.01c0,8.53-6.53,13.74-17.14,13.74c-10.08,0-16.61-4.95-16.93-12.83H315.06z"/>
		</g>
	</g>
	<g id="League">
		<g>
			<path d="M460.12,285.12h-27.66v-42.28h8.85v34.57h18.81V285.12z"/>
			<path d="M490.16,285.12h-28.01v-42.28h28.01v7.56H471v9.87h18.08v7H471v10.28h19.16V285.12z"/>
			<path d="M517.44,275.04h-14.85l-3.25,10.08h-8.88l14.68-42.28h10.4l14.68,42.28h-9.58L517.44,275.04z M504.49,268.21h11.07
				l-5.24-16.58h-0.53L504.49,268.21z"/>
			<path d="M547.91,286.2c-12.57,0-20.27-8.44-20.27-22.27c0-13.62,7.76-22.18,20.07-22.18c9.99,0,17.34,5.77,18.57,14.56h-8.79
				c-1.32-4.28-4.86-6.77-9.79-6.77c-6.83,0-11.02,5.42-11.02,14.3c0,9.05,4.39,14.56,11.37,14.56c5.8,0,9.81-3.43,9.99-8.53
				l0.03-0.76h-9.17v-6.65h17.75v5.39C566.66,279.17,559.46,286.2,547.91,286.2z"/>
			<path d="M578.07,269.62c0,5.33,3.19,8.73,8.85,8.73c5.68,0,8.88-3.4,8.88-8.73v-26.78h8.85v27.69c0,9.38-6.88,15.67-17.72,15.67
				c-10.81,0-17.7-6.3-17.7-15.67v-27.69h8.85V269.62z"/>
			<path d="M636.96,285.12h-28.01v-42.28h28.01v7.56H617.8v9.87h18.08v7H617.8v10.28h19.16V285.12z"/>
		</g>
	</g>
</g>
</svg>
